<svg width="192" height="45" viewBox="0 0 192 45" fill="none" xmlns="http://www.w3.org/2000/svg">
<g clip-path="url(#clip0)">
<path d="M41.0288 39.5687H33.1521L29.5509 32.6022L20.9374 15.8812L12.3307 32.6022L8.72957 39.5687H0.845947L4.44711 32.6022L20.9374 0.557678L37.4276 32.6022L41.0288 39.5687Z" fill="url(#paint0_linear)"/>
<path d="M72.6048 0.612793V7.5793H56.4483V39.6238H49.4128V7.5793H33.2632V0.612793H72.6048Z" fill="white"/>
<path d="M110.765 32.6573V39.6238H90.7846C88.8171 39.6238 86.954 39.1764 85.2716 38.3434C82.7967 37.1181 80.7667 35.108 79.5848 32.6573C78.7436 30.9845 78.2917 29.1465 78.2917 27.1984V0.612793H85.3272V27.8661C85.6679 30.3168 87.6353 32.2718 90.1102 32.6023L110.765 32.6573Z" fill="white"/>
<path d="M154.382 39.5687H146.505L142.904 32.6022L134.29 15.8812L125.677 32.6022L122.076 39.5687H114.199L117.8 32.6022L134.29 0.557678L150.781 32.6022L154.382 39.5687Z" fill="white"/>
<path d="M184.887 11.3723V11.152C184.887 9.20385 183.254 7.58614 181.286 7.58614H165.304C163.336 7.58614 161.702 9.20385 161.702 11.152V11.3723C161.702 13.3204 163.336 14.9381 165.304 14.9381H179.486C183.142 14.9381 186.41 16.5008 188.662 18.9514C188.829 19.1167 188.94 19.2888 189.114 19.454C190.859 21.5742 191.93 24.3002 191.93 27.2534C191.93 34.0547 186.361 39.5687 179.493 39.5687H167.167C160.298 39.5687 154.729 34.0547 154.729 27.2534H161.765C161.765 30.2066 164.184 32.6022 167.167 32.6022H179.493C182.475 32.6022 184.95 30.2066 184.95 27.2534C184.95 24.3002 182.475 21.9046 179.493 21.9046H165.311C162.439 21.9046 159.853 20.7894 157.934 18.9514C157.427 18.4489 156.975 17.8913 156.586 17.2787C155.404 15.6059 154.729 13.5476 154.729 11.3172V11.09C154.729 5.2938 159.457 0.557678 165.311 0.557678H181.293C187.147 0.557678 191.93 5.2938 191.93 11.09V11.3103L184.887 11.3723Z" fill="white"/>
<path d="M20.7705 44.3461C23.3928 44.3461 25.5187 42.2411 25.5187 39.6444C25.5187 37.0478 23.3928 34.9427 20.7705 34.9427C18.1481 34.9427 16.0222 37.0478 16.0222 39.6444C16.0222 42.2411 18.1481 44.3461 20.7705 44.3461Z" fill="#BA06FB"/>
</g>
<defs>
<linearGradient id="paint0_linear" x1="13.4581" y1="20.0623" x2="28.0887" y2="20.0623" gradientUnits="userSpaceOnUse">
<stop stop-color="#00A69C"/>
<stop offset="0.8384" stop-color="#BA06FB"/>
</linearGradient>
<clipPath id="clip0">
<rect width="191.077" height="43.7885" fill="white" transform="translate(0.845947 0.557678)"/>
</clipPath>
</defs>
</svg>
