<svg width="33" height="19" viewBox="0 0 33 19" fill="none" xmlns="http://www.w3.org/2000/svg">
<path d="M0.716725 12.8462L5.81485 17.9444C6.25928 18.3887 6.97938 18.3887 7.42381 17.9444C7.86811 17.5001 7.86811 16.7798 7.42381 16.3355L4.26758 13.1794L19.6944 13.1794C20.3228 13.1794 20.832 12.6702 20.832 12.0418C20.832 11.4135 20.3228 10.9042 19.6944 10.9042L4.26758 10.9042L7.42381 7.74799C7.86811 7.30369 7.86811 6.58346 7.42381 6.13916C7.20159 5.91695 6.91049 5.80597 6.61939 5.80597C6.32829 5.80597 6.03719 5.91707 5.81498 6.13916L0.716853 11.2373C0.272427 11.6818 0.272426 12.4021 0.716725 12.8462Z" fill="#C4C4C4" fill-opacity="0.5"/>
<path d="M13.1974 7.42853L28.6242 7.42853L25.468 10.5848C25.0237 11.0291 25.0237 11.7493 25.468 12.1936C25.9124 12.638 26.6325 12.6379 27.077 12.1936L32.1751 7.09521C32.6194 6.65091 32.6194 5.93067 32.1751 5.48638L27.0769 0.388252C26.8547 0.166165 26.5636 0.0550589 26.2725 0.0550589C25.9814 0.0550589 25.6903 0.166165 25.4681 0.388252C25.0238 0.832551 25.0238 1.55278 25.4681 1.99708L28.6243 5.15318L13.1975 5.15318C12.5692 5.15318 12.0599 5.66245 12.0599 6.29079C12.0599 6.91913 12.5692 7.42853 13.1974 7.42853Z" fill="#C4C4C4" fill-opacity="0.5"/>
</svg>
