<svg width="42" height="43" viewBox="0 0 42 43" fill="none" xmlns="http://www.w3.org/2000/svg">
<circle cx="20.8574" cy="21.3683" r="20.7866" fill="white"/>
<path d="M20.8569 10.03C14.6051 10.03 9.5188 15.1163 9.5188 21.3681C9.5188 27.6199 14.6051 32.7062 20.8569 32.7062C27.1087 32.7062 32.195 27.6199 32.195 21.3681C32.195 15.1163 27.1088 10.03 20.8569 10.03ZM20.8569 31.2142C15.4278 31.2142 11.011 26.7972 11.011 21.3681C11.011 15.9391 15.4278 11.5222 20.8569 11.5222C26.286 11.5222 30.7028 15.9391 30.7028 21.3681C30.7028 26.7972 26.286 31.2142 20.8569 31.2142Z" fill="#BA06FB"/>
<path d="M21.6029 20.6987V16.4626C22.0251 16.6194 22.3935 16.907 22.6496 17.2961C22.8763 17.6402 23.339 17.7355 23.683 17.5089C24.0272 17.2823 24.1225 16.8196 23.8958 16.4755C23.3598 15.6616 22.5339 15.1091 21.6029 14.9143V13.7291C21.6029 13.3171 21.2689 12.983 20.8569 12.983C20.4448 12.983 20.1108 13.3171 20.1108 13.7291V14.9121C18.4595 15.2564 17.2151 16.7229 17.2151 18.4748C17.2151 20.2267 18.4596 21.6934 20.1108 22.0377V26.2738C19.6886 26.117 19.3202 25.8293 19.0641 25.4403C18.8374 25.0961 18.3747 25.0007 18.0307 25.2274C17.6865 25.454 17.5912 25.9167 17.8179 26.2609C18.3539 27.0747 19.1799 27.6273 20.1108 27.822V29.0071C20.1108 29.4192 20.4448 29.7532 20.8569 29.7532C21.2689 29.7532 21.6029 29.4192 21.6029 29.0071V27.8242C23.2543 27.48 24.4986 26.0135 24.4986 24.2616C24.4986 22.5096 23.2543 21.0429 21.6029 20.6987ZM18.7073 18.4748C18.7073 17.5525 19.2928 16.7666 20.1108 16.4631V20.4865C19.2928 20.183 18.7073 19.3971 18.7073 18.4748ZM21.6029 26.2731V22.2498C22.4209 22.5532 23.0064 23.3392 23.0064 24.2614C23.0064 25.1837 22.421 25.9697 21.6029 26.2731Z" fill="#BA06FB"/>
</svg>
