<svg width="35" height="36" viewBox="0 0 35 36" fill="none" xmlns="http://www.w3.org/2000/svg">
<circle cx="17.5954" cy="18.0069" r="17.3889" fill="#BA06FB"/>
<path d="M24.9295 13.3474H24.7151V11.2659C24.7151 10.3973 24.0084 9.69049 23.1397 9.69049H11.7129C10.4519 9.69049 9.41224 10.655 9.29223 11.8849C9.2739 11.9718 9.28043 11.1974 9.28043 23.192C9.28043 24.5332 10.3716 25.6244 11.7128 25.6244H24.9294C25.7982 25.6244 26.5049 24.9177 26.5049 24.049V14.9228C26.5049 14.0541 25.7982 13.3474 24.9295 13.3474ZM11.7129 10.7727H23.1397C23.4117 10.7727 23.633 10.994 23.633 11.266V13.3474H11.7129C10.9894 13.3474 10.3972 12.7755 10.3642 12.06C10.3972 11.3446 10.9894 10.7727 11.7129 10.7727ZM24.9295 24.5423H11.7129C10.9683 24.5423 10.3626 23.9365 10.3626 23.192V14.0194C10.7492 14.2784 11.2137 14.4295 11.7129 14.4295H24.9295C25.2015 14.4295 25.4228 14.6508 25.4228 14.9228V17.1164H21.351C19.9643 17.1164 18.8361 18.2445 18.8361 19.6313C18.8361 21.018 19.9643 22.1461 21.351 22.1461H25.4228V24.049C25.4228 24.321 25.2015 24.5423 24.9295 24.5423ZM25.4228 21.064H21.351C20.561 21.064 19.9182 20.4213 19.9182 19.6313C19.9182 18.8413 20.5609 18.1986 21.351 18.1986H25.4228V21.064Z" fill="white"/>
<path d="M21.5505 20.4154C21.9836 20.4154 22.3346 20.0643 22.3346 19.6312C22.3346 19.1982 21.9836 18.8471 21.5505 18.8471C21.1174 18.8471 20.7664 19.1982 20.7664 19.6312C20.7664 20.0643 21.1174 20.4154 21.5505 20.4154Z" fill="white"/>
</svg>
