<svg width="44" height="45" viewBox="0 0 44 45" fill="none" xmlns="http://www.w3.org/2000/svg">
<circle cx="21.8247" cy="22.5667" r="21.7315" fill="white"/>
<path d="M30.9897 16.7436H30.7219V14.1424C30.7219 13.0567 29.8386 12.1735 28.753 12.1735H14.4725C12.8966 12.1735 11.5973 13.3788 11.4473 14.9159C11.4244 15.0245 11.4326 14.0567 11.4326 29.0468C11.4326 30.723 12.7962 32.0866 14.4724 32.0866H30.9897C32.0753 32.0866 32.9586 31.2034 32.9586 30.1177V18.7125C32.9586 17.6269 32.0754 16.7436 30.9897 16.7436ZM14.4725 13.5259H28.753C29.0929 13.5259 29.3695 13.8024 29.3695 14.1424V16.7436H14.4725C13.5684 16.7436 12.8282 16.0289 12.787 15.1348C12.8282 14.2406 13.5683 13.5259 14.4725 13.5259ZM30.9897 30.7342H14.4725C13.542 30.7342 12.785 29.9773 12.785 29.0468V17.5835C13.2681 17.9071 13.8486 18.096 14.4725 18.096H30.9897C31.3297 18.096 31.6062 18.3725 31.6062 18.7125V21.4539H26.5176C24.7845 21.4539 23.3746 22.8638 23.3746 24.5968C23.3746 26.3298 24.7845 27.7397 26.5176 27.7397H31.6062V30.1177C31.6062 30.4577 31.3297 30.7342 30.9897 30.7342ZM31.6062 26.3874H26.5176C25.5302 26.3874 24.727 25.5842 24.727 24.5968C24.727 23.6095 25.5302 22.8063 26.5176 22.8063H31.6062V26.3874Z" fill="#BA06FB"/>
<path d="M26.7671 25.5768C27.3083 25.5768 27.7471 25.138 27.7471 24.5968C27.7471 24.0556 27.3083 23.6168 26.7671 23.6168C26.2259 23.6168 25.7871 24.0556 25.7871 24.5968C25.7871 25.138 26.2259 25.5768 26.7671 25.5768Z" fill="#BA06FB"/>
</svg>
